<svg id="logo" xmlns="http://www.w3.org/2000/svg" viewBox="0 0 425.2 510.24"><defs><style>.cls-1{fill:#1e1e1c;}.cls-2{fill:#e20717;}.cls-3,.cls-4{fill:#cb9d3f;}.cls-4{fill-rule:evenodd;}.cls-5{fill:#004884;}.cls-6{fill:#c7c6c5;}.cls-7{fill:#fff;}.cls-8{fill:#feeb17;}</style></defs><title>USACH_Color copia</title><path class="cls-1" d="M384.82,99.84l-2.36-1.49a11.91,11.91,0,0,0,2.43-2.48,12.34,12.34,0,0,0,2.35-7.27,11.3,11.3,0,0,0-.17-2.08,12.54,12.54,0,0,0-20.18-7.75h0l-.11.06a1.23,1.23,0,0,0-.21,1.64,1.2,1.2,0,0,0,1.64.28,4.8,4.8,0,0,1,6.58,6.79A4.94,4.94,0,0,1,368,88.61L350.94,76.39C352.2,74.65,363.46,59,363.46,59c.29-.39,3-3.82,7.9-.35a4.6,4.6,0,0,1,2.08,3.19c.16,1.56-.63,3.36-2.29,5.21a1.13,1.13,0,0,0-.24,1.19,1.15,1.15,0,0,0,.92.78c.23,0,5.7.86,10-4.89,4.14-5.56-.18-13.39-.35-13.71a32.09,32.09,0,0,1-1.9-20.58,1.2,1.2,0,0,0-1.8-1.3,32.27,32.27,0,0,1-20.16,4.83c-.64-.12-9.19-1.56-13.05,4-4.05,5.91-1.51,10.83-1.4,11.05a1.18,1.18,0,0,0,1,.62,1.21,1.21,0,0,0,1.06-.61c1.21-2.18,2.65-3.52,4.18-3.86a4.49,4.49,0,0,1,3.67,1c1.82,1.3,2.85,2.71,3.07,4.2a3.34,3.34,0,0,1,.06.62,4.8,4.8,0,0,1-.89,2.71s-11.28,15.74-12.52,17.5L325.77,58.32a5.18,5.18,0,0,1-2.06-4,4.66,4.66,0,0,1,.87-2.7,4.83,4.83,0,0,1,3.15-2,4.82,4.82,0,0,1,5.4,6,1.17,1.17,0,0,0,.78,1.45,1.2,1.2,0,0,0,1.48-.72.8.8,0,0,0,0-.15h0a12.27,12.27,0,0,0,.77-4.2,12.54,12.54,0,0,0-22.74-7.33,12.09,12.09,0,0,0-1.56,3.11L309.72,46c-6.32-4.54-14.5-7.3-17.22-3.54a4,4,0,0,0-.73,2.37c0,3.88,4.45,9.11,9.6,12.8,0,0,1.27.79,2.36,1.49a13,13,0,0,0-2.44,2.48,12.54,12.54,0,0,0,18.42,16.77,1.19,1.19,0,0,0-1.22-2,5.61,5.61,0,0,1-4.9-1.11,4.93,4.93,0,0,1-1.14-6.75,4.72,4.72,0,0,1,3.11-2,4.81,4.81,0,0,1,3.6.83l3,2.15s11.6,8.3,13.77,9.87c-5.67,4.17-14.69,4.14-14.78,4.14a1.18,1.18,0,0,0-.88.37,1.14,1.14,0,0,0-.33.89c.43,6.8-5.37,16.05-8.58,20.64H108.51L98.1,91.56c1.43-1.72,3.32-4,3.32-4l.9-1.16c1.17-1.49,1.56-4.16-1.06-6.74a4.92,4.92,0,0,0-3.74-1.31,4.17,4.17,0,0,0-3.1,1.52l-.07.08-1.84-2.57-2.36-3.27-1.93-2.65,2.57-3.19a4.07,4.07,0,0,0,.82-2.57c0-.18,0-.39,0-.61a5.61,5.61,0,0,0-2-3.71,5.36,5.36,0,0,0-3.89-1.12,4.25,4.25,0,0,0-2.2.9c.82-4.69-1.45-9.22-7-16.49C73.68,41,72.21,37,69.78,29a1.22,1.22,0,0,0-1.17-.84,1.18,1.18,0,0,0-1.14.85,79.51,79.51,0,0,0-2.26,9.57c-5.87-12.22-16.93-20-17.45-20.41a1.17,1.17,0,0,0-1.34,0,1.15,1.15,0,0,0-.53,1,.77.77,0,0,0,0,.25,65.39,65.39,0,0,1,1.16,11.79c0,4.48-.59,9.39-2.62,13a23.21,23.21,0,0,0-3.08,9.62,44.79,44.79,0,0,1-1-5.1,1.2,1.2,0,0,0-1-1,1.18,1.18,0,0,0-1.26.61,33.81,33.81,0,0,0-4.43,16,23.35,23.35,0,0,0,.93,6.63A24.36,24.36,0,0,1,33,68.47a1.19,1.19,0,0,0-1.41-.54,1.17,1.17,0,0,0-.84,1.23c.93,10,4,16.92,9.2,20.49a14.38,14.38,0,0,0,6.21,2.43,4.15,4.15,0,0,0-1.74,2.28,5.49,5.49,0,0,0,.35,4.06,5.86,5.86,0,0,0,3.29,2.66,4.3,4.3,0,0,0,3.27-.19L55,99l2.27,2.39L60,104.28l2.17,2.29-.07,0c-2.3,1.21-2.67,4.43-1.56,6.57a5.42,5.42,0,0,0,3.17,2.59,4.42,4.42,0,0,0,3.35-.19l1.42-.74,4.47-2.41,12.74,13.9V272.21a118.88,118.88,0,0,0,35,84.53c1.06,1.06,2.16,2.08,3.24,3.09l-1.16,1.67c-9.74,13.59-14.84,29.36-11.65,31.62a2.84,2.84,0,0,0,2.15.39c4.68-.78,15.45-9.65,24-21.63l.6-.87a119.68,119.68,0,0,0,131.93,1.85c10.3,13.24,22.94,23.07,26.72,20.37,3.57-2.6-2.11-18.82-11.06-32.34,1.49-1.35,2.93-2.73,4.36-4.15A118.86,118.86,0,0,0,325,272.21V121.77l.84-1.18c.06-.06.69-1,.69-1l.1-.15c2.3-3.39,10.45-14.64,18.21-16.76a1.2,1.2,0,0,0,.74-.6,1.16,1.16,0,0,0,.13-.54,1.44,1.44,0,0,0-.05-.41,32.58,32.58,0,0,1-1.69-9.9,17.85,17.85,0,0,1,.87-5.41l16.75,12a4.85,4.85,0,0,1,2,3.92,4.66,4.66,0,0,1-.9,2.78,4.92,4.92,0,0,1-6.76,1.07,5.5,5.5,0,0,1-2.62-4.26,1.18,1.18,0,0,0-.94-1.22,1.2,1.2,0,0,0-1.36.7,12.53,12.53,0,0,0,21.78,12,11.93,11.93,0,0,0,1.58-3.1l2.16,1.76c5.21,3.74,10.81,5.79,14.27,5.22a4.36,4.36,0,0,0,2.94-1.69,3.89,3.89,0,0,0,.74-2.36C394.43,108.77,390,103.55,384.82,99.84Z"/><path class="cls-2" d="M41.28,87.67c-3.66-2.56-6.09-7.25-7.37-13.82a9.27,9.27,0,0,0,3.85,2.85,1.18,1.18,0,0,0,1.32-.47,1.14,1.14,0,0,0,.21-.68,1.1,1.1,0,0,0-.24-.72c-.19-.26-3-3.94-3-10.53a29.92,29.92,0,0,1,2.59-11.53c.7,3.19,2,7.43,4,8.91a1.17,1.17,0,0,0,1.88-1,1.29,1.29,0,0,0-.08-.47,12.38,12.38,0,0,1-.81-4.78,20.34,20.34,0,0,1,2.88-10.11c2.27-4.06,2.94-9.4,2.94-14.22A64.44,64.44,0,0,0,48.79,22C53,25.49,61.51,33.61,64.9,44.2a1.17,1.17,0,0,0,1.42.77,1.22,1.22,0,0,0,.9-1.16v-.23a3.87,3.87,0,0,1,0-.73,41,41,0,0,1,1.52-9.26c1.9,5.8,3.38,9.21,5.87,12.48,4.63,6,6.73,9.87,6.73,13.32,0,3-1.63,5.8-4.5,9.57A100.18,100.18,0,0,1,66.35,78.8,98.25,98.25,0,0,1,50.6,89.67,12.75,12.75,0,0,1,41.28,87.67Z"/><path class="cls-3" d="M54.56,96.47l-1.31.69c-1.26.67-3,1.62-3,1.62a2.1,2.1,0,0,1-1.47,0,3.36,3.36,0,0,1-1.89-1.48,3.15,3.15,0,0,1-.17-2.24,1.69,1.69,0,0,1,.78-1c1.35-.72,2.64-1.4,3.9-2.11a100,100,0,0,0,16.4-11.25A104.49,104.49,0,0,0,78.57,70.56c2.15-2.37,4.13-4.75,6.2-7.39a1.72,1.72,0,0,1,1.16-.59,3.11,3.11,0,0,1,2.17.62h0a3.34,3.34,0,0,1,1.1,2.13,2,2,0,0,1-.29,1.42L86.78,69.4c-.53.65-.91,1.15-.91,1.15l-.19.2c-1,1.2-2,2.36-3.07,3.53l-.2.21L81,76c-.1.12-.21.22-.32.34-.46.47-.94,1-1.44,1.44,0,.07-.13.12-.18.19-2.29,2.25-4.77,4.46-7.65,6.85C70,86,68.63,87.09,67.32,88.09a2.43,2.43,0,0,1-.25.2c-.4.3-.78.59-1.18.87s-.72.56-1.08.81-.54.38-.78.58c-.44.28-.86.58-1.28.87s-.7.47-1,.72l-.87.56C58.82,94,56.78,95.23,54.56,96.47Z"/><path class="cls-3" d="M61.72,102.64,59,99.7l-1.86-2a105.31,105.31,0,0,0,15.72-11A109.55,109.55,0,0,0,86.65,73.3l1.57,2.16,2.35,3.27,2.26,3.12L91.93,83c-.16.21-.32.39-.48.6s-.36.48-.55.71-.43.5-.64.77-.28.33-.42.5c-.35.43-.69.84-1,1.24l0,0c-.21.25-.44.49-.65.74l-.05,0-.64.7a.17.17,0,0,1-.09.08c-.2.23-.42.46-.64.69,0,0-.09.07-.11.11l-.66.67-.17.16c-.2.2-.45.42-.65.64a2.29,2.29,0,0,0-.23.21c-.2.2-.41.4-.65.61l-.31.29-.64.57a3.7,3.7,0,0,1-.42.37c-.2.18-.39.36-.61.53s-.42.37-.63.57-.31.25-.45.38L80,95.2c-.44.35-.83.68-1.23,1s-.49.41-.74.61-.27.21-.41.3-.51.42-.76.61a2.6,2.6,0,0,0-.31.25,9.51,9.51,0,0,0-.81.62l-.23.15-.8.6a1.86,1.86,0,0,0-.19.11c-.26.2-.51.39-.8.58l-.14.09-.79.53a.38.38,0,0,1-.14.09c-.25.16-.5.34-.76.52l-.13.06-.76.48-.14.08-.76.46-.11.06-.79.45-.09.07-.81.45-.09,0-.86.47h0c-.52.29-1.06.57-1.61.85-.39.22-.78.41-1.2.63l-.11.07C63.54,104.57,61.72,102.64,61.72,102.64Z"/><path class="cls-3" d="M71.29,110.61c-1.8,1-3.91,2.11-3.91,2.11l-1.44.73a2,2,0,0,1-1.51,0,3.24,3.24,0,0,1-1.78-1.39c-.57-1.12-.46-2.86.54-3.38l1.3-.66.17-.1A75.86,75.86,0,0,0,81.4,97.1,77.48,77.48,0,0,0,95.27,82.61l0,0,.31-.42.19-.23h0l.47-.63a1.84,1.84,0,0,1,1.38-.6,2.53,2.53,0,0,1,1.93.63,3.48,3.48,0,0,1,1.24,2.38,1.92,1.92,0,0,1-.42,1.18L99.54,86l-2.9,3.56c-1,1.19-1.79,2.2-1.79,2.2a69.73,69.73,0,0,1-6.75,6.82c-1,.87-2,1.76-3.11,2.66l-.11.07c-1,.87-2.09,1.72-3.12,2.51a69.5,69.5,0,0,1-8,5.43S72.61,109.89,71.29,110.61Z"/><path class="cls-3" d="M85.68,122.78c-3.23-3.49-8.61-9.41-10.57-11.53a80.83,80.83,0,0,0,11.31-8.08,78.38,78.38,0,0,0,10.13-9.7c1.83,2.41,6.33,8.44,9,12H85.68Z"/><path class="cls-2" d="M135.38,370.5c-9.63,13.45-20.54,21-22.75,20.68a1.81,1.81,0,0,1-.13-.77c0-3.47,3.35-15.13,12.27-27.53,0,0,.44-.66,1-1.42A117.75,117.75,0,0,0,136,369.63Z"/><path class="cls-3" d="M295.08,390.22a2.08,2.08,0,0,1-.14.87c-2.13.36-12.73-6.75-22.81-19.69a123.88,123.88,0,0,0,11.38-8.76C291.86,375.26,295.08,386.66,295.08,390.22Z"/><path class="cls-2" d="M391.76,113.62a2.1,2.1,0,0,1-1.39.7c-2.36.39-7.13-.94-12.5-4.78l-3.37-2.74a1.27,1.27,0,0,0-1.2-.22,1.25,1.25,0,0,0-.8.88,9.46,9.46,0,0,1-1.68,4,10.15,10.15,0,0,1-18.41-5.86s0-.06,0-.09a8.64,8.64,0,0,0,2.18,2.1,7.2,7.2,0,0,0,8.34-11.73l-18.11-13a1.19,1.19,0,0,0-1.77.49,19.09,19.09,0,0,0-1.52,7.87,34.71,34.71,0,0,0,1.47,9.56c-7.63,2.8-14.9,12.2-18.05,16.78V105.46H314.25c3.29-4.89,7.87-12.83,8-19.53,3.09-.13,11.37-.91,16.47-5.67a1.19,1.19,0,0,0,.37-.86.19.19,0,0,0,0-.08,1.16,1.16,0,0,0-.48-.89l-15.1-10.84-3-2.12a7.18,7.18,0,0,0-10,1.67,6.94,6.94,0,0,0-1.32,4.08,7.54,7.54,0,0,0,2.93,5.9,8.29,8.29,0,0,0,2.56,1.39A10.1,10.1,0,0,1,303.24,63a9.88,9.88,0,0,1,3.23-2.91,1.24,1.24,0,0,0,.56-1,1.31,1.31,0,0,0-.58-1l-3.7-2.32c-6.88-4.92-9.47-10.21-8.32-11.85s7-.83,13.89,4.09l3.37,2.74a1.31,1.31,0,0,0,1.19.22,1.2,1.2,0,0,0,.8-.86,10.1,10.1,0,0,1,19.65-.93c-.22-.2-.41-.42-.64-.6a7.11,7.11,0,0,0-5.34-1.25,7.19,7.19,0,0,0-3.11,12.91l18.14,13a1.23,1.23,0,0,0,.89.2,1.14,1.14,0,0,0,.77-.48l13.23-18.43a7.23,7.23,0,0,0,1.27-5.12,9,9,0,0,0-4-5.77,7,7,0,0,0-5.6-1.35,7.77,7.77,0,0,0-4.2,2.81,5.8,5.8,0,0,1-.07-.74,9.7,9.7,0,0,1,1.89-5.58c3-4.43,10.63-3.06,10.7-3.06h0a34.36,34.36,0,0,0,19.51-3.86,32.52,32.52,0,0,0-.51,5.39,34,34,0,0,0,3.08,14.29,15.79,15.79,0,0,1,1.88,6.84,7.07,7.07,0,0,1-1.32,4.31,9.26,9.26,0,0,1-5.39,3.75,8.26,8.26,0,0,0,1.31-4.2,3.71,3.71,0,0,0,0-.67,6.81,6.81,0,0,0-3.06-4.87,8.78,8.78,0,0,0-6.62-1.89,7.51,7.51,0,0,0-4.6,2.81L348.32,76a1.14,1.14,0,0,0-.21.89,1.16,1.16,0,0,0,.49.78l18,12.9c3.57,2.27,7.85,1.55,10.11-1.6a7.12,7.12,0,0,0,1.34-4.18,7.2,7.2,0,0,0-3-5.86,9,9,0,0,0-.82-.41,10,10,0,0,1,10.47,8.43,10.15,10.15,0,0,1-5,10.47,1.16,1.16,0,0,0-.56,1,1.2,1.2,0,0,0,.58,1.06l3.68,2.3C390.3,106.72,392.92,112,391.76,113.62Z"/><path class="cls-1" d="M327.68,476.74l.09.05.2.07a35,35,0,0,0,4.23,2.21c4.57,2.59,11.49,6.8,16.45,9.89.44.28,11.05,7.05,19.31.43,14.86-11.88,3-53,.81-60a38.88,38.88,0,0,0,2.92-4.35c5.52-9.54,2.08-14.09.34-15.61,0,0,0,0,0,0l-25-24.24a10.15,10.15,0,0,0-1-1,12.43,12.43,0,0,0-1.18-.87,7.63,7.63,0,0,0-3.1-1.23,6.2,6.2,0,0,0-4.84,1.51c-3.85,3.13-5.27,12.53-5.75,17.42-11.34,8.86-31.78,19.74-68.25,28.17L258.2,419a10.1,10.1,0,0,0-9.16-5.19l-2.63.31s-.49.14-.49.14a152.11,152.11,0,0,1-37.48,4.35h-6.37a151.9,151.9,0,0,1-37.56-4.37l-.38-.1s-2.7-.33-2.7-.33a10.11,10.11,0,0,0-9.1,5.16l-4.5,9.67c-35.14-8.35-55-19-66.11-27.67-.49-4.89-1.91-14.29-5.75-17.42a6.29,6.29,0,0,0-4.86-1.51A7.52,7.52,0,0,0,68,383.32a8.45,8.45,0,0,0-1,.76,9.61,9.61,0,0,0-1.32,1.28L40.8,409.42c-1.75,1.54-5.14,6.09.35,15.57a40.64,40.64,0,0,0,2.93,4.37c-2.18,7-14,48.15.82,60,8.27,6.62,18.87-.15,19.32-.45,4.94-3.07,21.19-12.41,21.45-12.58a10.55,10.55,0,0,0,3.35-3.3,10.42,10.42,0,0,0,.75-7.18,1.14,1.14,0,0,0-.66-.68,1.07,1.07,0,0,0-.94.07L76.6,472.19c-3.18-6.39,1-14.87,2-16.72A222,222,0,0,0,127,472.77c11.2,2.37,13.17-5.78,13.19-5.86l2.3-6.36.62-1.71.33.09c16.7,5.32,37.1,8.25,57.92,8.26h7.77c20.85,0,41.24-2.94,58-8.26l2.1-.68c.24.38.51.86.81,1.39l2.7,7.39a4.93,4.93,0,0,0,.5,1.3c1.11,2.19,4.34,6.19,12.64,4.45a222.92,222.92,0,0,0,48.4-17.31c1,1.89,5.19,10.33,2,16.71l-11.58-6.91a1.1,1.1,0,0,0-.95-.07,1.06,1.06,0,0,0-.63.68,8.84,8.84,0,0,0,4.11,10.48A.77.77,0,0,0,327.68,476.74Z"/><path class="cls-3" d="M87.88,468c0,.16,0,.27,0,.48a8,8,0,0,1-.84,3.62,8.63,8.63,0,0,1-3.1,2.8c-1.08.34-4.25,1.07-6.19-.88C81.76,471.62,86.49,468.81,87.88,468Z"/><path class="cls-3" d="M73.23,466.77a14.16,14.16,0,0,0,1.49,6.52c.23.42.46.84.71,1.25.06.06.3.39.3.39s.12.12.17.18a6.15,6.15,0,0,0,3.5,2.14h0l-3.22,1.88c-5.59,3.28-12,7.28-13.16,8-.11.07-9.77,6.21-16.79.57-4.91-3.9-6.55-11.64-6.55-20.25,0-13.94,4.28-30.07,6-36,7.22,8.69,17.88,16.1,29.33,22.17.78.64,1.32,1.06,1.48,1.18A27.19,27.19,0,0,0,73.23,466.77Z"/><path class="cls-3" d="M127.45,470.65a218.78,218.78,0,0,1-51.06-18.72,129.1,129.1,0,0,1-15.21-9.3c-2.36-1.87-4.71-3.73-6.84-5.44a58.72,58.72,0,0,1-8.84-9.53A42.61,42.61,0,0,1,43,423.91a17,17,0,0,1-2.7-8.23A5.86,5.86,0,0,1,42.25,411s17.91-17.35,23.51-22.76L67,387.1a3.38,3.38,0,0,0,.27,1.32l.48.84.23.41c2.39,3.8,6.61,8.84,14,14.35,11.78,8.75,31.62,18.67,65,26.63L134.51,457.3l-.19.43a4.41,4.41,0,0,0-.14.64c-.34,2.42,1.1,6.64,2.13,9.27a8.85,8.85,0,0,0,.45,1.09C135.37,470.25,132.68,471.76,127.45,470.65Z"/><path class="cls-3" d="M140.54,459.6a9.32,9.32,0,0,0-.43,1.19c-1.19,3.3-2,5.51-2,5.51a.58.58,0,0,1,0,.13,44.47,44.47,0,0,1-1.83-7.39,1.59,1.59,0,0,1,0-.4,4,4,0,0,1,3.33-1l1.45.49C140.88,458.65,140.71,459.14,140.54,459.6Z"/><path class="cls-3" d="M270.19,455.63c-.48.16-1,.31-1.44.48l-2.55.83c-16.48,5.21-36.55,8.07-57.07,8.09l-2.46,0h-2.85l-2.45,0c-20.51,0-40.55-2.88-57-8.06-.17-.05-.32-.12-.48-.17-.71-.22-1.38-.44-2.05-.67l-1.49-.5a5.1,5.1,0,0,0-2.62-.05c.07-.14.15-.34.24-.54,1.67-3.58,7-15.05,11.11-23.89l.91-2,4.24-9.12a8,8,0,0,1,7.23-4.05l2.18.26.29.09a153.86,153.86,0,0,0,38.17,4.46l3.2,0,3.17,0a153.69,153.69,0,0,0,38.11-4.45l.36-.1L249,416a7.92,7.92,0,0,1,7.2,4s2,4.18,4.51,9.68c1,2.2,2.14,4.64,3.3,7.07L272.56,455a4.18,4.18,0,0,1,.24.54,6.1,6.1,0,0,0-2-.11A4.82,4.82,0,0,0,270.19,455.63Z"/><path class="cls-3" d="M273.52,463l-1.94-5.39a4,4,0,0,1,2.67,1.1v0s0,0,0,.06a1.57,1.57,0,0,1,0,.25A16.87,16.87,0,0,1,273.52,463Z"/><path class="cls-3" d="M285.4,470.65c-9,1.91-10.56-4-10.64-4.23a.25.25,0,0,0,0-.11,26.24,26.24,0,0,0,1.66-6.53c1.14-.34,2.2-.74,2.38-.8.41-.12,1.51-.35,3-.77.31-.09.49-.22.43-.37s-.2-.2-.43-.11a3.9,3.9,0,0,1-1.22.19c-.49,0-.92-.44-1.44-2l-2.77-8.48.09,0c.55.22,3.66,2.07,6.79,3.61s6.58,3.29,8.35,4.13a1.61,1.61,0,0,0,1,.18c.2-.07.31-.31.2-.79l-3.63-13.29c-.32-1.19-.25-1.6.3-2a1.9,1.9,0,0,1,.69-.26c.25-.08.36-.24.31-.35s-.27-.13-.58,0c-1.1.32-1.93.63-2.18.69-.46.16-1.69.45-2.88.79-.33.11-.56.2-.5.38s.11.19.4.1a4.22,4.22,0,0,1,1.23-.2c.6,0,.91.34,1.31,1.61l3,9.25-.12,0c-.42-.17-4.28-2.26-6.25-3.27-4.19-2.1-8.55-4.45-8.91-4.65s-.9-.48-1.17-.4-.29.41-.17.83l3.42,12.5c.53,1.82.61,2.41.06,2.72a3.79,3.79,0,0,1-.68.3,5.08,5.08,0,0,0-.07-1s0,0,0,0a1.81,1.81,0,0,1-.08-.32.31.31,0,0,0,0-.1s0-.06-.05-.09,0,0,0,.05-.23-.48-.25-.49l0-.06-1-2.29-11.09-23.8c34.62-8,55.06-18.19,67.1-27.13,7.4-5.51,11.59-10.54,14-14.35l.34-.52.42-.75a3.85,3.85,0,0,0,.26-1.29c.28.27.69.66,1.17,1.14,5.59,5.4,23.51,22.76,23.51,22.76a5.91,5.91,0,0,1,1.93,4.67,17.17,17.17,0,0,1-2.7,8.23,40.6,40.6,0,0,1-2.49,3.75,58.57,58.57,0,0,1-8.82,9.53l-6.9,5.49A130.4,130.4,0,0,1,336.44,452,218.29,218.29,0,0,1,285.4,470.65Z"/><path class="cls-3" d="M337,475.12c.07-.09.17-.16.24-.25s.08-.12.1-.17l.15-.25a.47.47,0,0,0-.06.09s0-.07.08-.11a11.66,11.66,0,0,0,.64-1.15,14,14,0,0,0,1.51-6.51,27.35,27.35,0,0,0-3.27-12,2.87,2.87,0,0,1-.15-.32c.53-.28,1.07-.55,1.6-.84,11.45-6.07,22.14-13.49,29.36-22.2,1.71,5.92,6,22.06,6,36,0,8.61-1.63,16.34-6.54,20.25-7,5.64-16.69-.51-16.79-.56-1.14-.72-7.58-4.72-13.17-8-1.15-.65-2.26-1.31-3.28-1.89h.06A6.28,6.28,0,0,0,337,475.12Z"/><path class="cls-3" d="M325.77,472.08a8.2,8.2,0,0,1-.84-3.65,3,3,0,0,1,0-.45l10.1,6c-2,1.93-5.13,1.2-6.2.87A8.75,8.75,0,0,1,325.77,472.08Z"/><path class="cls-1" d="M297.11,435.34c-5.77,2.28-6.17,7.62-4.82,11.1s5.4,7.06,10.91,4.88c4.88-1.93,6.48-6.8,4.66-11.46S301.87,433.44,297.11,435.34Z"/><path class="cls-3" d="M303.54,449.9c-3.58,1.42-7-1-8.68-5.2-2-5,0-7.23,2.1-8.08,3.06-1.2,6.58.59,8.37,5.09C307.63,447.49,304.87,449.39,303.54,449.9Z"/><path class="cls-1" d="M216.57,451.67a5.65,5.65,0,0,1-1.17,0c-.68-.08-.85-.44-1-1.1-.16-1-.27-2.94-.38-5.26l-.19-4.26c-.19-3.66-.2-4.35-.2-5.11s.17-1.2.78-1.35a2.79,2.79,0,0,1,.67-.12c.22,0,.34-.08.33-.29s-.18-.2-.46-.18c-.88,0-2.33.16-2.9.2s-2.19,0-3,.08c-.36,0-.53.1-.53.24s.16.27.4.26a2.39,2.39,0,0,1,.8.07c.48.15.75.42.82,1.24s.1,1.44.3,5.1l.17,4.27c.14,2.32.22,4.24.17,5.25,0,.72-.17,1.07-.61,1.2a2.61,2.61,0,0,1-.76.11c-.26,0-.36.17-.36.28s.17.25.43.24c.91-.05,2.45-.21,3-.23s2.15,0,3.64-.09c.26,0,.43-.11.43-.27A.31.31,0,0,0,216.57,451.67Z"/><path class="cls-1" d="M231.45,432c-.07,0-.26.09-.61.2a8.2,8.2,0,0,1-1.51.28l-9.09,1.09a19.24,19.24,0,0,1-2.24.14,9.41,9.41,0,0,1-1-.16c-.13,0-.19.16-.2.48s-.19,2.58-.15,3,.12.39.24.37.2-.12.23-.32a2.73,2.73,0,0,1,.29-.88c.27-.56.79-.8,2.07-1l3.32-.49,1.14,9.71c.27,2.19.51,4.1.53,5.13,0,.71-.08,1.18-.53,1.34a2,2,0,0,1-.77.18c-.29,0-.33.18-.33.28s.2.26.46.23c.91-.11,2.41-.38,2.92-.44s2.15-.17,3.62-.35c.26,0,.43-.13.4-.29s-.13-.25-.37-.22a9.21,9.21,0,0,1-1.17,0c-.67,0-.84-.46-1-1.14-.23-1-.49-2.9-.75-5.13l-1.14-9.7,2.82-.28c2-.2,2.68.45,2.81,1.08l.05.25c.08.35.13.46.32.44s.14-.14.14-.42c-.06-.62-.22-2.41-.28-2.91S231.59,432,231.45,432Z"/><path class="cls-1" d="M192.32,448.45c-.14,0-.2.11-.29.35-.25,1-.57,1.46-1.17,1.67a5.14,5.14,0,0,1-2.13.09l-5.27-.62a2.1,2.1,0,0,1-1.13-1.29c-.07-.2-.1-.38-.16-.57-.27-1.46-.71-3.82-1.2-6.28,0,0,8.52,1.25,8.89,1.35.83.17,1.08.59,1.14,1.07a8.59,8.59,0,0,1,0,.88.17.17,0,0,0,.18.21c.22,0,.25-.31.28-.5s.17-1.12.29-1.61c.25-1.19.37-1.57.37-1.72a.43.43,0,0,0-.06-.27c-.2,0-.3.11-.5.27s-.56.26-1.1.26-9.74-1.32-9.74-1.32c-.58-2.91-1.1-5.74-1.38-7.17,1.77.3,9.84,1.43,10.18,1.53,1.12.23,1.26.59,1.39,1a2.39,2.39,0,0,1,.05.9c0,.2,0,.32.16.32s.26-.25.29-.37a14.29,14.29,0,0,0,.3-1.56,7.66,7.66,0,0,1,.35-1.53c0-.1,0-.23-.12-.26a2.16,2.16,0,0,0-.39.09,7.44,7.44,0,0,1-1,0c-.41,0-11.09-1.82-11.94-1.9h0c-.24-.05-.46.2-.83.82l-8.48,13.92c-.69,1.13-1.18,1.77-2.23,1.77l-.68-.09c-.16,0-.25.06-.28.21s.08.27.36.32c1.17.2,2.36.34,2.58.38.72.13,1.74.39,2.46.52.24.05.38,0,.4-.19s0-.24-.27-.31l-.33-.05c-.69-.13-.84-.41-.77-.84a4.83,4.83,0,0,1,.59-1.38l1.77-3c.06-.14.11-.16.24-.14l5.19.94c.12,0,.18.06.22.22l.83,5.08a.38.38,0,0,1-.3.5c-.22,0-.29.06-.31.21s.19.23.61.31c1.12.17,3,.4,4,.52s2.06.27,2.88.36c1.17.15,2.63.34,4.28.52.86.09,1,.11,1.27-.49a16.42,16.42,0,0,0,.59-2.62C192.5,448.79,192.5,448.48,192.32,448.45Z"/><path class="cls-3" d="M178.15,443l-4.3-.77c-.07,0-.11-.07,0-.19l3.22-5.63c0-.06.11-.21.17-.19l.07.25,1,6.41C178.28,443,178.25,443.07,178.15,443Z"/><path class="cls-1" d="M207.58,434.29a4.53,4.53,0,0,0-.63.08,9.83,9.83,0,0,1-1.52.08l-9.16-.24A17.57,17.57,0,0,1,194,434c-.57-.1-.8-.31-1-.31s-.21.13-.27.44-.55,2.52-.55,2.92,0,.41.19.41.21-.12.26-.32a3.58,3.58,0,0,1,.4-.81c.33-.52.9-.67,2.19-.67h3.37l-.25,9.78c0,2.2-.12,4.11-.24,5.14-.1.7-.24,1.14-.7,1.24a2.13,2.13,0,0,1-.81.07c-.27,0-.33.14-.33.25s.13.27.38.27c.91,0,2.45,0,3,0s2.16.14,3.65.17c.25,0,.42-.07.44-.24s-.1-.27-.34-.27a5.91,5.91,0,0,1-1.16-.12c-.67-.13-.8-.58-.83-1.28a51.06,51.06,0,0,1,0-5.18l.25-9.77,2.82.15c2,.08,2.59.82,2.63,1.45l0,.27c0,.37.05.49.22.49s.22-.15.24-.41c0-.62.13-2.41.13-2.91S207.73,434.29,207.58,434.29Z"/><path class="cls-1" d="M166.68,444.37c-.18-.06-.27.07-.37.28a3.32,3.32,0,0,1-.94,1.22c-.74.47-1.58.23-2.75-.13-1.66-.5-2.45-.91-2.7-1.37s.1-2.05,1-5l1.24-4.08c1.09-3.48,1.29-4.14,1.56-4.85s.58-1.09,1.2-1a4.46,4.46,0,0,1,.84.17c.28.08.42,0,.47-.13s-.08-.25-.4-.35c-.83-.26-2.6-.75-3.11-.91s-1.94-.66-2.95-1c-.32-.1-.49-.1-.53.07s0,.27.26.35a2.67,2.67,0,0,1,.71.31c.62.43.72.73.55,1.55s-.4,1.38-1.48,4.88l-1.27,4.08c-.64,2.12-1.2,3.93-1.61,4.89-.27.66-.53,1.05-1,1a3.08,3.08,0,0,1-.78-.15c-.29-.08-.39,0-.41.14s.05.29.34.38l1.5.42c.52.13,1,.26,1.23.35.89.26,1.76.56,2.85.92s2.3.8,3.83,1.26c1.14.35,1.26.29,1.57-.19a20.89,20.89,0,0,0,1.14-2.56C166.8,444.67,166.83,444.41,166.68,444.37Z"/><path class="cls-1" d="M261,443.77a7.55,7.55,0,0,1-.85.12c-.42,0-1.12-.13-2.48-2.05-2.26-3.22-8.31-11.92-9.15-13.08-.33-.48-.49-.67-.84-.59s-.32.38-.4,1.09l-2.08,16.17c-.16,1.31-.34,2.13-1.29,2.54l-.64.19-.06,0a.31.31,0,0,0-.36-.11,8.89,8.89,0,0,1-1.13.13c-.68,0-.9-.34-1.11-1-.28-1-.63-2.88-1.06-5.17l-.76-4.19c-.67-3.61-.8-4.27-.89-5.05s0-1.21.58-1.43a4,4,0,0,1,.67-.22c.21,0,.33-.12.28-.34s-.2-.17-.47-.12c-.87.17-2.29.49-2.84.58s-2.16.36-3,.51c-.35.07-.49.14-.45.28s.15.27.38.24a2.33,2.33,0,0,1,.83-.06c.5.09.79.33,1,1.13s.27,1.42.95,5l.78,4.19c.43,2.29.78,4.19.85,5.17.06.72,0,1.09-.43,1.27a2.5,2.5,0,0,1-.77.24c-.28,0-.34.21-.31.32s.21.22.46.17c.89-.15,2.4-.54,2.89-.62s2.14-.3,3.57-.59a.72.72,0,0,0,.27-.09c.07.15.18.18.42.13,1.15-.29,2.3-.66,2.52-.73.71-.15,1.72-.33,2.46-.5.21-.06.32-.15.28-.35s-.11-.23-.38-.16l-.32.08c-.67.16-.94,0-1.05-.45a6.82,6.82,0,0,1,0-1.52l.42-3.43c0-.16,0-.18.14-.21l5.14-1.27a.19.19,0,0,1,.27.11l2.87,4.29a.42.42,0,0,1-.08.59c-.2.07-.25.17-.2.3s.29.11.68,0c1.87-.4,3.44-.79,4.2-1s.94-.3.9-.48S261.21,443.71,261,443.77Z"/><path class="cls-3" d="M251.94,438.9l-4.23,1c-.06,0-.14,0-.1-.14l.64-6.45c0-.09,0-.24.06-.27s.1.14.14.21l3.56,5.44C252,438.82,252,438.87,251.94,438.9Z"/><path class="cls-1" d="M341.35,428.48c.33.55.5,1,.16,1.34a2.78,2.78,0,0,1-.6.57c-.21.18-.19.32-.13.41s.28.07.49-.1c.73-.58,1.88-1.57,2.22-1.85s1.86-1.36,2.92-2.2c.24-.19.33-.35.24-.47a.25.25,0,0,0-.37,0,8.26,8.26,0,0,1-.95.65c-.63.35-1,.1-1.42-.36a44.93,44.93,0,0,1-3-3.58l-.19-.24a.15.15,0,0,1,0-.24l1.66-1.27a.65.65,0,0,1,.44-.14c.46.08,2.14.63,3.59,1,2.08.52,3.66.84,4.73.59a4.3,4.3,0,0,0,2.09-1.16l.46-.54c.55-.57,1-1.06,1.16-1.26a.39.39,0,0,0,.13-.13c.52-.54,1.32-1.25,1.84-1.79.18-.15.24-.3.11-.42s-.21-.12-.42.09l-.25.24c-.48.51-.81.51-1.08.23a4.35,4.35,0,0,1-.72-1.17l-1.2-3c-.05-.15-.05-.16,0-.25l3.87-3.95a.2.2,0,0,1,.27-.05l4.42,1.76a.35.35,0,0,1,.18.51c-.14.18-.13.27,0,.37s.31-.09.62-.37c1.43-1.38,2.63-2.61,3.21-3.2s.66-.75.53-.9-.24-.07-.39.09-.38.34-.65.57-1,.53-3.07-.21c-3.42-1.26-12.55-4.71-13.82-5.15-.5-.17-.74-.24-1,0s-.11.49.15,1.14l5.51,14a3.32,3.32,0,0,1,.34,2.05,6.25,6.25,0,0,1-2,.07c-1.95-.19-4.47-.72-7.63-1.37.69-2.81.56-4.54-.42-5.81a3.8,3.8,0,0,0-3.17-1.34,8.46,8.46,0,0,0-4.07,2c-.58.44-2.2,1.8-2.85,2.3-.36.28-1.6,1.18-2.55,1.94-.28.23-.39.38-.3.5s.27.08.46-.07.61-.43.79-.52a1.09,1.09,0,0,1,1.52.3c.46.53.83,1,2.9,3.61l2.37,3A43.16,43.16,0,0,1,341.35,428.48Z"/><path class="cls-3" d="M352.82,412.25c-.07.05-.13.05-.17-.06l-2.36-5.49c0-.08-.11-.18-.05-.25s.15.05.23.08l5.5,2.3c.08,0,.08.09,0,.16Z"/><path class="cls-3" d="M335.56,416.11a.26.26,0,0,1,0-.37,8.24,8.24,0,0,1,1-.94,3.5,3.5,0,0,1,5.2.84,3.67,3.67,0,0,1,.82,3.48c-.14.47-.36.74-1.09,1.31a6.33,6.33,0,0,1-1.51.95c-.17.05-.26,0-.42-.18Z"/><path class="cls-1" d="M315.3,434.6l-1.09,0c-2.37-.07-3.07-.6-3.51-1.46-.67-1.35.31-2.77,1.83-3.53a3.25,3.25,0,0,1,2.79-.26,2.48,2.48,0,0,1,1.21,1c.1.23.23.3.36.23s.18-.34,0-.75a24.44,24.44,0,0,1-1.08-2.38c-.08-.15-.22-.15-.43-.1a13,13,0,0,0-3.15,1.18c-2.92,1.45-4.53,4.18-3.33,6.57.86,1.73,2.34,2.62,5.5,2.78l1.57.08c2.39.12,3,.88,3.45,1.71.71,1.37.16,3-1.65,3.94-1.31.67-3.15,1-4.32-.24a3.62,3.62,0,0,1-.7-.94c-.08-.12-.17-.28-.37-.19s-.15.34,0,.63.67,1.58,1.19,2.65c.22.44.35.51.73.47a10.76,10.76,0,0,0,3.68-1.2,7,7,0,0,0,3.11-2.58,4.63,4.63,0,0,0,.27-4.7C320.41,435.75,318.83,434.68,315.3,434.6Z"/><path class="cls-1" d="M335.32,434.07a8,8,0,0,1-1.07.58c-.63.26-1,0-1.35-.48-.6-.77-1.52-2.22-2.58-3.91l-4.66-7.53,2.55-1.51c1.81-1.1,2.7-.84,3-.4l.15.19c.21.28.29.33.45.24s.09-.21,0-.43c-.3-.47-1.09-1.88-1.36-2.25s-.26-.4-.4-.31-.18.18-.47.42a14,14,0,0,1-1.32.93l-8.11,5c-.67.41-1.42.86-2.05,1.16s-.82.2-1,.31-.1.23,0,.5a26.67,26.67,0,0,0,1,2.51c.13.19.22.28.37.19s.12-.2.08-.38a2.42,2.42,0,0,1,0-.84c0-.6.43-1,1.55-1.75l3-1.93,4.65,7.52a44.16,44.16,0,0,1,2.36,4c.29.59.38,1,0,1.36a3.38,3.38,0,0,1-.67.5c-.26.14-.26.29-.2.38s.27.13.54,0c.76-.5,2.09-1.41,2.54-1.69s2-1.1,3.27-1.92c.24-.15.34-.3.26-.45S335.55,433.94,335.32,434.07Z"/><path class="cls-3" d="M338.27,385.25a4,4,0,0,1,3.17-1,4.73,4.73,0,0,1,.9.22,2.47,2.47,0,0,1,1.33,3.1l-.26.44-.34.56a47.18,47.18,0,0,1-9.51,10.51C334.21,394,335.62,387.4,338.27,385.25Z"/><path class="cls-1" d="M94.69,429.21c.63-1.2,1.09-3.73-2.8-5.78-.73-.35-1.61-.73-2.66-1.3-.4-.2-1.71-1-2.85-1.59-.32-.15-.48-.19-.57,0s0,.25.25.39a3.86,3.86,0,0,1,.79.51c.64.53.61,1,.25,1.75s-.66,1.38-2.47,4.83l-2.06,3.94c-1.08,2.08-2,3.86-2.63,4.75-.42.61-.77,1-1.27.91a2.79,2.79,0,0,1-.81-.31c-.24-.13-.36-.11-.44,0s0,.31.32.44,1,.48,1.49.74,1,.51,1.23.61,1,.52,1.58.91l1.46.86c3.94,2.06,7,.49,8.27-1.92,1.38-2.64.11-5.35-1.34-6.92C92.14,431.62,93.72,431,94.69,429.21Z"/><path class="cls-3" d="M88.61,438.55c-1.21,2.35-3.12,2-4.09,1.53A4,4,0,0,1,83.11,439c-.54-.65-.39-1.09.37-2.56l2.8-5.35c.06-.1.12-.13.21-.07l.91.49A3.47,3.47,0,0,1,88.9,433,6.07,6.07,0,0,1,88.61,438.55Z"/><path class="cls-3" d="M88,430.62a8.1,8.1,0,0,1-1-.6c-.06,0-.11-.13,0-.33l2.9-5.55c.14-.28.24-.32.42-.29a4.69,4.69,0,0,1,.72.31c1.84,1,1.65,3.4.84,4.91A3.47,3.47,0,0,1,89.77,431,2.37,2.37,0,0,1,88,430.62Z"/><path class="cls-1" d="M77.19,437.12a3.64,3.64,0,0,1-.76-.64c-.39-.38-.77-1.06-.27-3.48.83-4.07,3.31-14.87,3.59-16.37.12-.61.12-.89-.06-1s-.48,0-1.12.49l-13.85,10c-1.11.78-2,1.24-3,.77-.2-.09-.47-.26-.66-.36s-.23-.13-.34,0,0,.28.25.44c1,.7,2.18,1.37,2.41,1.52.65.4,1.44,1,2.09,1.47.24.15.39.19.52,0s0-.21-.23-.36l-.3-.21c-.6-.41-.6-.8-.37-1.19a5.21,5.21,0,0,1,1.16-1.09l3.08-2.33c.14-.1.21-.1.29-.05l4.51,3a.21.21,0,0,1,.11.28l-1.34,5.57a.43.43,0,0,1-.51.37c-.23-.1-.32-.1-.42,0s.15.32.49.57c1.6,1.09,3.07,2.07,3.81,2.56s1,.57,1.06.39S77.35,437.25,77.19,437.12Z"/><path class="cls-3" d="M74.48,426.41,70.76,424c-.09,0-.05-.12,0-.2l5.3-4c.08-.08.18-.15.25-.1s0,.15,0,.24l-1.64,6.47C74.65,426.43,74.58,426.47,74.48,426.41Z"/><path class="cls-1" d="M107.57,430.17c-6.37-2.59-11,1.63-12.77,5.64S93.22,446,99.31,448.45c5.38,2.18,10.62-.68,13-6.06S112.87,432.3,107.57,430.17Z"/><path class="cls-3" d="M109,442.06c-3,6.79-6.78,6.2-8.26,5.57-4.06-1.64-4.82-6.48-2.67-11.37,2.55-5.83,6-6.21,8.43-5.22C109.93,432.45,111.26,436.81,109,442.06Z"/><path class="cls-1" d="M127.71,458a3.32,3.32,0,0,1-.62-.26,4.69,4.69,0,0,1-2-2.48c-.9-1.95-1.78-4.6-3-8,3-1.25,4.2-2.67,4.8-4.46a4.36,4.36,0,0,0-.53-3.82,7.31,7.31,0,0,0-3.88-2.39c-.72-.24-2.48-.71-3.27-1-.49-.16-1.91-.69-3.14-1.09-.35-.11-.5-.11-.56.07s.06.24.31.34a4.46,4.46,0,0,1,.88.35c.69.42.76.87.55,1.71s-.44,1.47-1.59,5.14l-1.38,4.27c-.72,2.23-1.33,4.13-1.77,5.12-.33.65-.61,1.15-1.08,1.11a3.17,3.17,0,0,1-.89-.17c-.27-.09-.38,0-.43.08s.09.3.4.4c.92.28,2.38.67,2.84.83s2,.72,3.33,1.14c.31.09.48.08.54-.09s0-.22-.21-.28a8.53,8.53,0,0,1-1.09-.47c-.65-.3-.62-.89-.46-1.61.2-1.05.83-3,1.53-5.21l.13-.36c0-.13.13-.17.22-.12l2,.69c.17.05.3.11.35.3.19.47.71,2.45,1.22,4.07.7,2.28,1.2,3.71,2,4.57a4.62,4.62,0,0,0,2.34,1.25l2.18.69c.28.09.46.09.51-.09S127.88,458.07,127.71,458Z"/><path class="cls-3" d="M119.49,446.24a6.19,6.19,0,0,1-1.7-.79c-.12-.12-.14-.25-.05-.5l2.37-7.36c0-.19.11-.29.31-.29a5.58,5.58,0,0,1,1.24.3c1.37.43,3.2,2.13,2.1,5.55-.64,2-1.66,2.9-2.52,3.21A2.28,2.28,0,0,1,119.49,446.24Z"/><path class="cls-1" d="M62.41,423.08c-.15-.15-.3-.08-.47.07a3,3,0,0,1-1.55.63c-1,.07-1.73-.63-2.77-1.59-1.52-1.43-1.9-2-2-2.63s1.09-2,3.31-4.37L62,411.92c2.64-2.83,3.13-3.34,3.71-3.9s1.1-.8,1.72-.39a7.61,7.61,0,0,1,.81.64c.24.23.4.31.51.16s0-.27-.26-.54c-.77-.71-2.24-2-2.72-2.42s-1.69-1.7-2.6-2.55c-.3-.28-.48-.36-.58-.24s0,.28.16.48a4.7,4.7,0,0,1,.6.66c.52.74.4,1.17-.17,1.84s-1,1.14-3.63,4l-3,3.29c-1.6,1.69-3,3.16-3.8,3.85-.58.48-1.08.79-1.52.5a5.5,5.5,0,0,1-.77-.58c-.23-.22-.37-.24-.46-.16s0,.32.23.57.93.8,1.38,1.22l1.13,1c.8.75,1.49,1.42,2.31,2.29s1.86,1.8,3.28,3.13c1,.95,1.18.95,1.68.64a19.72,19.72,0,0,0,2.29-1.86C62.48,423.31,62.55,423.21,62.41,423.08Z"/><path class="cls-3" d="M70.49,384.45a3.88,3.88,0,0,1,4.12.8c2.62,2.15,4,8.7,4.69,13.81a47.27,47.27,0,0,1-9.52-10.54l-.26-.4-.33-.6a2.36,2.36,0,0,1-.19-.67v-.05A2.6,2.6,0,0,1,70.49,384.45Z"/><path class="cls-4" d="M205.32,391.77h0c-65.81,0-119.64-53.84-119.64-119.64V105.46H325q0,83.32,0,166.67C325,337.93,271.12,391.77,205.32,391.77Z"/><path class="cls-5" d="M320.24,272.21a114.93,114.93,0,0,1-196.17,81.2,116.64,116.64,0,0,1-16.42-20.66c-2.46-4.09-4.64-8.15-6.55-12.07a114.52,114.52,0,0,1-10.71-48.47v-162H320.24Z"/><path class="cls-6" d="M99.7,136.17c1.25-.93,7.2-5.24,7.2-5.24l7.26,5.25-2.77-8.53s6-4.34,7.22-5.25h-8.89s-2.31-7.09-2.79-8.58c-.47,1.49-2.79,8.58-2.79,8.58h-9l7.32,5.31S100.17,134.68,99.7,136.17Z"/><path class="cls-6" d="M296.63,136.17c1.26-.93,7.19-5.24,7.19-5.24l7.27,5.25c-.47-1.48-2.75-8.53-2.75-8.53l7.2-5.25h-8.91s-2.29-7.09-2.78-8.58c-.47,1.49-2.77,8.58-2.77,8.58h-9l7.33,5.31Z"/><path class="cls-6" d="M168.56,359.29s-2.29-7.11-2.78-8.6l-2.78,8.6H154l7.34,5.3s-2.25,7-2.74,8.46l7.2-5.24s6,4.33,7.26,5.25l-2.75-8.53s5.94-4.32,7.21-5.26Z"/><path class="cls-6" d="M247.58,359.29s-2.31-7.11-2.81-8.6c-.46,1.49-2.76,8.6-2.76,8.6h-9l7.34,5.3-2.75,8.46c1.28-.91,7.21-5.24,7.21-5.24s6,4.33,7.26,5.25l-2.76-8.53s5.93-4.32,7.19-5.26Z"/><path class="cls-6" d="M295.83,303.7l7.19-5.25,7.26,5.26c-.46-1.48-2.73-8.55-2.73-8.55l7.19-5.23h-8.9s-2.3-7.1-2.77-8.59l-2.81,8.59H291.2l7.38,5.32S296.3,302.21,295.83,303.7Z"/><path class="cls-3" d="M205.32,355.57a83.52,83.52,0,0,0,83.43-83.39l0-130.53H121.84V272.21A83.56,83.56,0,0,0,205.32,355.57Z"/><path class="cls-7" d="M126.58,146.39H284V272.18a78.73,78.73,0,0,1-157.46,0Z"/><path class="cls-6" d="M110.51,289.93l-2.77-8.59c-.49,1.49-2.79,8.59-2.79,8.59h-9c1.27.94,7.33,5.32,7.33,5.32s-2.27,7-2.74,8.45l7.2-5.26s6,4.37,7.28,5.28c-.49-1.49-2.76-8.55-2.76-8.55l7.21-5.24Z"/><path class="cls-1" d="M149.6,241.71a5.94,5.94,0,0,0,4.48.25,5.49,5.49,0,0,0,3.18-2.79,5.94,5.94,0,0,0,.58-2.64,2.86,2.86,0,0,0,0-.42,14.52,14.52,0,0,1,7.05.84l.13,0,3,.91c1.64.49,4.26,1.23,7.36,1.88.8.21.8.21,1.63,1.63l1.13,1.87a7,7,0,0,0,8.09,3l1-.34a7.59,7.59,0,0,0,8,1.84l2.83-1.06-2.24-2a11.28,11.28,0,0,1-2.84-3.26,37.64,37.64,0,0,0,5.18-.67,33.28,33.28,0,0,0,11.63,9.63,48.71,48.71,0,0,1-11.26,3.62c-1.83.25-7.75,1.5-11.5,6.28-4-.27-6.79.82-7.89,3.2a6.32,6.32,0,0,0,.39,6.09c2.26,3.45-.8,8-.8,8a9.5,9.5,0,0,0,6.11-2.52c.18.66.38,1.34.63,2a33,33,0,0,0,6.16,10.73c1.35,1.65,2,2.51,2,3.49a4.75,4.75,0,0,1-.87,2.27,35.34,35.34,0,0,1-10.4,8.92,24.36,24.36,0,0,1-5.64,2.39c-3.19.8-4.25-.22-4.32-.51a5.65,5.65,0,0,0-6.16-4.64,5.79,5.79,0,0,0-3.78,2c-2,.34-3.52,1.46-3.9,3.14a3.34,3.34,0,0,0-.16,1.27,7.4,7.4,0,0,0,1.92,4.8,4.86,4.86,0,0,1,1.81-2.42,5,5,0,0,0,1,1.12,5.53,5.53,0,0,0-2.59,4.09,4.65,4.65,0,0,0-2,3.46c0,.14,0,.28,0,.42a6.13,6.13,0,0,0,3.86,4.95c0-.08.32-3,1.11-3.44a6,6,0,0,0,3.27.61l.7-.12v.07a4.77,4.77,0,0,0,.33,1.35,4.91,4.91,0,0,0-.33,1.67,3.33,3.33,0,0,0,.25,1.47c2.05,4.23,6.71,3.33,6.71,3.33s-1.37-1.75-1.17-3v0h.38a5.79,5.79,0,0,0,3.9-2.11,5.44,5.44,0,0,0,1.25-3.45,3.31,3.31,0,0,0,0-.55,5.83,5.83,0,0,0-1.07-2.83c1.19-1.26,5.1-3.08,9.12-3.32a15,15,0,0,1,3.55.4c2.94.55,6.58,1.23,10.41-1.4l3-2.09a5.45,5.45,0,0,0,2.47-2.22s.29-.49.55-.91a7.6,7.6,0,0,0,5.17-4s.38-.69.77-1.37a7.8,7.8,0,0,0,3.91-4.4l.07-.15a10.08,10.08,0,0,0,1.61.81,11.92,11.92,0,0,0,1.81.61,7.18,7.18,0,0,1,1.46.62c1.9,1.34,2.42,4.94,2.42,4.94a9.65,9.65,0,0,0,2.39-5.7,6.24,6.24,0,0,0-.25-1.88,34.51,34.51,0,0,0,4.51,1.65l2,.59c4.88,1.54,7.2,2.61,7.2,4.58a2.42,2.42,0,0,1,0,.38c-.65,4.82-5.52,12.93-9.62,16.07-1.58,1.18-2.42,1.22-2.73,1.18a5.72,5.72,0,0,1-1.69-.39c-.79-1.33-2-3.3-4.53-3.63a5.62,5.62,0,0,0-3.54.68c-1.77-.34-3.32-.18-4.3.86-2.7,2.93-.95,7.72-.95,7.72a8.19,8.19,0,0,1,2.74-2,5.55,5.55,0,0,0,2.82,3.2,4.79,4.79,0,0,0-.84,2.18c0,.21,0,.4,0,.6a4.35,4.35,0,0,0-1.63,3.25v.14c.2,3.13,4,5.44,4,5.44a15.67,15.67,0,0,1,1.19-3.68,4.05,4.05,0,0,0,1.35.51,5.47,5.47,0,0,0,3-.45,5.73,5.73,0,0,0,2.56,3c0,.07,0,.12,0,.2a6.53,6.53,0,0,1-1.71,3.61s4.29,1.4,7.3-1.22a3.77,3.77,0,0,0,.94-2.8,1.77,1.77,0,0,0,0-.32,5.42,5.42,0,0,0,1.77-3.53,5,5,0,0,0,0-.77,5.35,5.35,0,0,0-2-4.22h0a3.44,3.44,0,0,1,.72-2c.86-1.14,2.44-1.78,4.58-1.82a11.67,11.67,0,0,1,1.62.2c3.16.5,9,1.43,12.34-4.86l.74-1.38a4.42,4.42,0,0,0,3.42-3.65s.05-.44.09-.71A5.88,5.88,0,0,0,261,309.3s.09-.63.14-1c4.32-1.54,4.63-8.64,4.63-8.64s-3.57,2.17-6.1,1.93c.08-.65.18-1.33.18-1.33a18.4,18.4,0,0,0,.32-2.71,4.15,4.15,0,0,0-.83-2.66c-1.14-1.51-3.28-2-6.15-2.27a18.32,18.32,0,0,1-3.29-.62l0,0,0-.06c-.63-.15-2.61-.84-3.17-2a1.46,1.46,0,0,1-.15-.68,2.94,2.94,0,0,1,.28-1.16,6.28,6.28,0,0,1,.95-1.42c7,2.48,10.57-1.17,11.81-3a4.08,4.08,0,0,0,.89-2.1,1.65,1.65,0,0,0-.51-1.22l-.09-.11a7.09,7.09,0,0,0,3.33-4.7l.7-3.42-3.23,1.37a9.1,9.1,0,0,1-3.79.62,22.92,22.92,0,0,0,.46-3.47c3.6,0,8.73-.63,12.56-3.95a13.46,13.46,0,0,0,4.5-10.5,18.5,18.5,0,0,0-2-8.38,9,9,0,0,0,1.22-4.37,7.49,7.49,0,0,0-2.48-5.54,13,13,0,0,0-3.25-2.23c-1.56-.81-2.27-1.2-2.63-4.14l-.57-4.75-2.75,3.9a8.52,8.52,0,0,0-1.5,4.55c-5-4-6.77-7.36-6.77-12.91a9.72,9.72,0,0,1,2-5.64,12.77,12.77,0,0,0,8.5,1.8,11.53,11.53,0,0,0,8.05-4.68,29,29,0,0,0,2.64-5.4c1.41-3.5,2.56-6.19,7.05-8.32-2.34-2-7.12-1.72-9.85,0a25.68,25.68,0,0,0,.19-3.14c0-1-.06-2-.14-3a2.42,2.42,0,0,1,0-.38c.08-4.56,6.1-9.52,6.1-9.52s-9.81-1.47-13.9,6.19a5.31,5.31,0,0,0-1.48-2.62s.18,3.82-7,7.15a12.67,12.67,0,0,0-6.91,7.14,10.18,10.18,0,0,0-.56,3.34,12.94,12.94,0,0,0,1.09,4.51,18.7,18.7,0,0,0-4.94,11.24A21.64,21.64,0,0,1,241,220c-1.73-.67-3.67-2-3.67-4.54a5.18,5.18,0,0,1,.12-.91c3.86,1.85,8.66-.17,8.66-.17s-4.9-2.74-5-6.5a4.52,4.52,0,0,1,.21-1.31l.8-2.09c.06-.16.12-.33.2-.5.52,1.73.33.48.91,4.58A15.47,15.47,0,0,0,248,197.6a14.88,14.88,0,0,0-.31-2.95c2.77.46,6.38-1.48,6.38-1.48s-5.2-2.73-6.67-7.87c6.7.68,10.24-5.64,10.24-5.64s-5,.36-7.18-2a3.69,3.69,0,0,1-.84-2c4-1.25,8.12,1.87,8.12,1.87s-.69-6-7.22-11.11a15,15,0,0,0,3.19-8.38s-5.52,2.74-7.95,2.91a13.23,13.23,0,0,0,1.86-6.72,15,15,0,0,0-1.13-5.15,17.67,17.67,0,0,1-6.34,6.22,15.2,15.2,0,0,1-6.71,1.93s-1.14.14-2.28.25a6.87,6.87,0,0,0-3-.64,7.06,7.06,0,0,0-6,3.79c-5.43-1-9.21-1-11.2-.17-7.47-.64-11.92-.08-13.22,1.69a3.93,3.93,0,0,0-.73,2.29,4.58,4.58,0,0,0,.64,2.33l.11.19a5.9,5.9,0,0,0-.69,2.73c0,.2,0,.4,0,.59a8.63,8.63,0,0,0,1.91,4.52,2.16,2.16,0,0,1-1.76-.32c-3.11-2.27-3.09-8.63-3.09-8.63s-5.62,4.44-4.74,10.57a7.27,7.27,0,0,0,4.22,5.82,8.49,8.49,0,0,0,4.08.75,8.61,8.61,0,0,0-.29,2.12,13.25,13.25,0,0,0,.75,4.06c-11.08-3-14.56,4.79-15.51,8a11,11,0,0,1-1.76-1.32V186a1,1,0,0,0-.36-.74l-5.15-3.69a1.1,1.1,0,0,0-.26-.14l-3.64-1.1-.19-.05a5.4,5.4,0,0,0,.11-1.21,5.69,5.69,0,0,0-5.73-5.65,5.78,5.78,0,0,0-4.38,1.75,6,6,0,0,0-9.63.47,5.32,5.32,0,0,0-3.89-1.48,5.22,5.22,0,0,0-5.2,5.19c0,.08,0,.16,0,.24s-.35.08-.82.22a71.56,71.56,0,0,0-7.13,2.48,1,1,0,0,0-.4.31l.15-.16L129,186.67a.9.9,0,0,0-.35.72v36.39a.89.89,0,0,0,.89.9l15.09,0a4.58,4.58,0,0,0-.67.72,4.44,4.44,0,0,0-3.75,2.29,4.8,4.8,0,0,0-.57,2.41,9.23,9.23,0,0,0,1.26,4.26,6.89,6.89,0,0,1,2.77-2.75,6.14,6.14,0,0,0,2.52,2.29,6.24,6.24,0,0,0,.72.27l-.07.1a5.05,5.05,0,0,0-.43,1.33,4.56,4.56,0,0,0-1.75,2.71,3.32,3.32,0,0,0-.13,1,6.16,6.16,0,0,0,4.74,5.6c-.31-1.86-.43-2.47,0-3.45C149.34,241.55,149.47,241.64,149.6,241.71Z"/><path class="cls-2" d="M205.21,301c.14.39,1.6.36,5.32.1-2.89,5.18-7.88,2.42-8.46,3.47,0,0-.57,1.11,2.77,1.39-2.23,3.63-6.09.32-8.52,2.07,0,0-.41,1.25,3.55,1.69-4.72,3.27-9.07.44-13,.68-4.59.28-9,2.36-10.51,4.06a1.54,1.54,0,0,0-.38,1.65,4.57,4.57,0,0,1,1.15,2.48,3.86,3.86,0,0,1-3.47,4.07,4.37,4.37,0,0,1-1.48-.12,2.48,2.48,0,0,0-.08,3.24c-2.7-1-3.11-3-2.09-4.75a3,3,0,0,1-.53-1.46,4.15,4.15,0,0,1,2.77-4,1.43,1.43,0,1,0-1.94-1.36,3.7,3.7,0,0,1-3.54,3.79,4.14,4.14,0,0,1-3.08-1c-1.36.42-2.31,2-2,2.76a3.64,3.64,0,0,1-1.1-2.35c-.14-1,.81-2,1.9-2.67v-.07A3.85,3.85,0,0,1,166,310.6c2.24-.22,2.39.84,3,.83a1.43,1.43,0,0,0,1.07-2.49,1.3,1.3,0,0,0-1.57-.19,2.07,2.07,0,0,1-1.23.44,3.87,3.87,0,0,1-4.2-3.13c-.92.06-2.39.94-2.51,1.76a5,5,0,0,1-.16-2.47c.3-1.24,1.74-1.82,3.13-1.85a3.94,3.94,0,0,1,3-1.88,3.78,3.78,0,0,1,4.16,3.13c.21,1.23,2,3.13,6.58,2a26.06,26.06,0,0,0,6.11-2.57v0a36.27,36.27,0,0,0,11.05-9.52c3.89-6.39-3-6.27-7.15-18.07a19.11,19.11,0,0,1-1.13-9.73c-1.06-.05-2.07.55-1.57,3.13.76,4-3.15,5.4-3.15,5.4,2.5-4.66-2.16-7.46-.54-11,1.09-2.42,4.77-2.37,7-2.07,2.72-4.11,7.59-5.88,10.93-6.37,5.95-.87,13-4.33,13-4.33s4.58,2.08,7,3.1c2.07.89,6.44,2.24,8.31,5.44s-.83,6.88-.83,6.88-6.72-2.42-9.12.41.91,5,.91,5-2.7,2.61-7.14-1c0,0-1.42,1.41,1.51,3.69,0,0-2.6,2.36-6.82,0a9.89,9.89,0,0,0-.43.95,10.91,10.91,0,0,0,1.59,8.93c3.23,4.13,7.21,6,2.3,10.6,1,.55,2-.05,6-.09C212.32,302.26,206.57,297.58,205.21,301Z"/><path class="cls-7" d="M217.1,285a8.36,8.36,0,0,0-3.25,3.41l-.06.17-.13.33a5,5,0,0,0-.29,1.74,5.68,5.68,0,0,0,.95,3c-.57,0-1.12.05-1.57.08a5.1,5.1,0,0,0,.49-2.07c0-2.28-1.66-4.1-3.12-5.68l-1.81-2.09a8.38,8.38,0,0,1-1.54-4.94c0-.43,0-.87.08-1.37a7.2,7.2,0,0,0,6.86-1.14l1.49-1.35a7.23,7.23,0,0,0,2.41-.35,6.12,6.12,0,0,0,3.07-2.5s-2.47-.94-2.51-2.74c0-.1-.06-.41.42-1,1-1.21,4.61-.69,6.86.07a31,31,0,0,1-3,3.64c-2.77,2.87-5.38,7.22-5.38,11.61C217,284.26,217.08,284.64,217.1,285Z"/><path class="cls-2" d="M251.6,210.13c-2.95-5.44-.41-11.24,5-13.62,6.13-2.71,6.53-5.48,6.53-5.48.47,5.48-1.39,6.55-2.57,7.59a9.05,9.05,0,0,0-2,2c1.94-.27,4.55-1.64,5.05-3.41,1.54-5.61,3.63-10.6,11.34-11.84,0,0-5.09,4.21-4.65,8.82.46,4.84-.09,10.9-4.26,14.24a8,8,0,0,0,2.76-2.46c3.31-6.24,10.5-5.75,10.5-5.75-5.31,1.52-5.48,7.92-8.59,12.55-2.83,4.25-10.38,5.69-15.37,1.4a12.19,12.19,0,0,0-3.51,8.14c0,6.49,2.25,10.32,7.94,14.75,1.94,1.51,4,3.08,5.81,4.83.26-.46.44-1.55-1.74-3.38-3.25-2.75-.4-6.77-.4-6.77.69,5.82,3.36,4.56,6.41,7.48,3.7,3.53,1.1,7.57.44,8.46a17,17,0,0,1,2.24,8.5,11.62,11.62,0,0,1-3.84,9.1c-4.2,3.63-10.43,3.64-13.16,3.44a20.25,20.25,0,0,1-.91,6.67c2.89,1.46,6.76-.22,6.76-.22-.89,4.38-6.3,5.09-9,5.18a5,5,0,0,0-.74.09c1.07.74,3.19,1.63,7,1.16,0,0-2.67,6.63-11.38,2.85a9.85,9.85,0,0,0-2.13,2.84c-2.17,4.89,4.3,6.38,4.3,6.38l0,0a21.2,21.2,0,0,0,3.64.69c7.3.73,5.13,2.65,4.61,8.66.07.68,2.81.55,5.92-.63-.85,6.34-7.48,3.2-8,7.06,0,0,1.48,1,3.65-.44-.8,5.88-8.64,3.25-8.91,5.27.34.32,2,1,5.48.24-.52,3.85-8,1.45-8.49,4.94a6.18,6.18,0,0,0,4.52-.51c-3.4,6.44-9.85,3.61-12.37,3.66-7.4.18-7.58,6.29-6.73,6.8a3.62,3.62,0,0,1,1.59,3.62,3.41,3.41,0,0,1-1.92,2.88c1.08,4.18-3.41,3.85-3.41,3.85a3.86,3.86,0,0,0,.42-3.71,3.72,3.72,0,0,1-2.55-4,3.59,3.59,0,0,1,1.86-2.7,1.19,1.19,0,0,0-.23-1.85,1.08,1.08,0,0,0-1.53.41c-.37.44-.07,1.3-.16,1.89A3.86,3.86,0,0,1,222.5,333a3.75,3.75,0,0,1-1.69-.66,2.84,2.84,0,0,0-1.66,2.84s-3.57-2.89.14-5.19a3.88,3.88,0,0,1,0-1.18c.26-2,2.12-3.3,5-3.08a1.16,1.16,0,0,0,1.24-1.72c-.72-1.13-1.86-.12-1.86-.12a3.92,3.92,0,0,1-3.38,1.23,3.81,3.81,0,0,1-3.24-4,3,3,0,0,0-3.1,1s-.66-5,4.42-3.5a3.77,3.77,0,0,1,2.93-.85c1.64.22,2.5,1.59,3.3,2.94.29.44,1,.83,2.93,1.09,5,.69,13.48-11.91,14.42-18.81.53-3.95-3.62-5.45-8.5-7-.65-.17-1.33-.37-2-.59a33.68,33.68,0,0,1-4.51-1.65,17,17,0,0,1-5-3.08c-.93.52-1.89,1.51.48,2.77,3.49,1.85,2.16,5.5,2.07,5.77v0a3.81,3.81,0,0,0-1.59-2.6,7.85,7.85,0,0,0-2.09-.89,9.23,9.23,0,0,1-1.55-.54,10.19,10.19,0,0,1-1.48-.73,6.31,6.31,0,0,1-1.22-1,3.75,3.75,0,0,1-1.05-3.95c0-.08,0-.15.07-.21s0-.09.06-.13a7.44,7.44,0,0,1,3.59-3.16c-1.23-4.82,2.06-9.83,4.61-12.46,4.42-4.6,5.68-8.18,5.68-8.18.88-2.9,2.83-7.85-13.07-14-9.85-3.79-14.82-8.69-17.31-12.64a33.24,33.24,0,0,1-5.92.88,6.11,6.11,0,0,1,1.66-2.77A4.36,4.36,0,0,1,198,236a13.78,13.78,0,0,0,11.26-5.11,7.78,7.78,0,0,0,.9,3c.86,1.52,3,4.15,7.81,4.74l3.28.42-1.39-3a10.64,10.64,0,0,1-.92-3.73c0-1,.34-1.28.46-1.35a18.86,18.86,0,0,0,4.3-3.65c3.86,6.78,12,5.31,12,5.31s-3.93-2.19-4.18-6.41a3,3,0,0,1,.16-1.11l.14-.19a13.92,13.92,0,0,0,1.22-2,7.08,7.08,0,0,0,1.81,1.18,6.72,6.72,0,0,0,.81.31,38.5,38.5,0,0,0,1.51,6.35c4.55,13.78,7.25,13,12.37,18.37a21.2,21.2,0,0,1,6,11.11,3.19,3.19,0,0,0,3.17,2.71c2.12-.17,4.57-.67,6.14-2a5.8,5.8,0,0,0,1.83-4.68c0-6.34-4.7-10.29-10.33-14.68-6-4.7-10.08-9.83-10.08-19.19C246.29,217.17,248.61,213.31,251.6,210.13Z"/><path class="cls-7" d="M255.22,243c5.49,4.25,9.64,7.78,9.64,13.22a3.93,3.93,0,0,1-1.2,3.29,8.88,8.88,0,0,1-5,1.57,1.38,1.38,0,0,1-1.36-1.2,22.79,22.79,0,0,0-6.56-12.11,43.68,43.68,0,0,0-3.4-3.19c-3-2.58-5.17-4.46-8.45-14.4a35,35,0,0,1-1.36-5.43,9.87,9.87,0,0,0,6.88-2.86v.46C244.46,233.18,249.85,238.77,255.22,243Z"/><path class="cls-2" d="M204.61,194c6.49,3.21,6.7-3.95,6.7-3.95,8.88,3.42,13.13-2.59,13.6-3.33a10.73,10.73,0,0,1-6.76,2.61h-.26l-.5,0c-.17,0-.34,0-.48,0l-.85-.13-.18,0c-2.82-.52-6.07-1.94-9.66-2.79C201.73,185.25,201,191,201,191c-4.29-8.84,1.12-10.76,1.12-10.76a4.06,4.06,0,0,0,.53.83h0a5.73,5.73,0,0,0,1.34,1.17,7.87,7.87,0,0,0,2.71,1l.61.1.32,0c.22,0,.44,0,.66,0,3.43.15,7.14-1.29,7.91-4.72-1.34-.84-5.42-2.74-11.89.46-7,3.46-11.8,2.32-13-3.2-.78-3.6,1.95-7,1.95-7s.65,8.82,6.32,7.59c5.48-1.18,11.17-4.61,16.78,1.06.2-5.68-5.45-6.78-9.95-5.7-5,1.18-4.08,3.65-4.08,3.65l-.08-.06c-.5-.43-3-2.73-3.23-5.39a4,4,0,0,1,2.93-4.42,9.44,9.44,0,0,0-2.61.12,2.52,2.52,0,0,1,0-2.61c1.34-1.88,12.1-.9,12.1-.9,2-1.46,9.61-.09,11.9.37a5.33,5.33,0,0,1,4.91-4,5.9,5.9,0,0,1,.39,11.72c2,1,6.9-1.34,7-5.72a7.2,7.2,0,0,0-2.06-5.63,16.73,16.73,0,0,0,12.1-6.06c.49,4-1.45,7.45-3.37,9.86,1.48.46,4.29.27,9.48-2.29a12.33,12.33,0,0,1-4.27,6.2,17.7,17.7,0,0,1,7.56,7.62c-3.05-1.78-7.41-.08-7.41-.08-.45,6.94,6.94,6.68,6.94,6.68-3,3.21-6.59,3.07-9.61,1.91a13.38,13.38,0,0,0,5.32,9.75c-1.47.26-3,.61-4.78-.59-.27.28-.21.89,0,1.44a13.86,13.86,0,0,1-1.29,11.22,9.08,9.08,0,0,0-2.93-6.59c.39,4-.7,4.71-1.71,7.9-1.41,4.48,2.62,7.27,2.62,7.27a5.38,5.38,0,0,1-6.58-3.49,11,11,0,0,1,.09,4.05c-.73,3.49.83,6.41,4.72,7.89h0a7.29,7.29,0,0,0,1.63.24c-7.68,3.47-9.76-3.41-9.76-3.41,0,3.3-2.15,5.37-2.31,5.9-1.24,4.06,2.11,6.77,2.11,6.77a10.07,10.07,0,0,1-7.28-5.85,18.13,18.13,0,0,1-.66-4.85c.17,4.16-2.25,6.63-5.76,8.91-2.82,1.82-.19,7.4-.19,7.4-6.5-.8-8-6-6.86-8.43s.1-6.26.1-6.26c-1.15,6.74-6.82,12.51-13.31,12.06s-6.82,6.37-6.82,6.37c-3-7.7,2.53-12.66,5.86-14.22s3.11-6.65,3.11-6.65c-1.44,2.45-5.34,4.13-10,4s-7.77,4.54-7.77,4.54c-.92-5.65,5.2-12.48,10.61-14a9,9,0,0,0,1.81-.76c-2.56-.8-6.43-.6-11.59,3.84a14.13,14.13,0,0,1,9-11.81,17.16,17.16,0,0,1-2.24-.59c-3.43-1.12-6.94.95-6.94.95a13.54,13.54,0,0,1,3-4.87h0l0,0a7.7,7.7,0,0,1,3.06-1.91c1.5-.5,4.85-.1,5.19-.22a15.46,15.46,0,0,0-1.43-2.28c-2.53-2.86-8.21-.78-8.21-.78C189.92,186.2,198.13,190.73,204.61,194Z"/><path class="cls-7" d="M202.83,191a4.73,4.73,0,0,1,1.43-2.75,1.75,1.75,0,0,1,1.51-.18c1.28.3,2.51.7,3.73,1.07,0,.34,0,.79,0,.79,0,.71-.35,2.34-1.18,2.83s-2.11-.11-2.85-.47l-.69-.33Z"/><path class="cls-7" d="M205.11,180.78c4-2,6.9-1.76,8.62-1.18-1.09,1.45-3.34,2.06-5.42,2l-.55-.05-.26,0-.53-.07A6.1,6.1,0,0,1,205.11,180.78Z"/><path class="cls-7" d="M190.17,197a6.24,6.24,0,0,0-1.52.27,10.41,10.41,0,0,0-2.58,1.38,17.71,17.71,0,0,1-2.22-.93A10.27,10.27,0,0,1,190.17,197Z"/><path class="cls-2" d="M180.93,198.6a17.13,17.13,0,0,0,3.35,1.77,16.4,16.4,0,0,0-3.36,7.2Z"/><path class="cls-2" d="M180.92,208.78c.81-.47,3.77-2.12,6.09-2.29a17,17,0,0,0-5.08,9.52,6.53,6.53,0,0,1-.61-.55l-.4-.33Z"/><path class="cls-7" d="M180.92,218c.21.15.43.29.71.47l0,2.55a5.28,5.28,0,0,1,1.15-.81,15.11,15.11,0,0,0-1.9,4.29Z"/><path class="cls-7" d="M180.86,224.73c-.08.32-.14.63-.19.94a46,46,0,0,1-12.58.8,26.87,26.87,0,0,1-5.09-.82,13.84,13.84,0,0,1-2.31-.93Z"/><path class="cls-8" d="M175.27,220.47a.9.9,0,0,0,.39-.75V184c1.24.87,3.06,2.19,3.46,2.49v36.48H159.33a4.69,4.69,0,0,0,.21-1.48,5.91,5.91,0,0,0-.59-2.54c3.06-.95,8.35-1.54,15.48,1.64A1,1,0,0,0,175.27,220.47Z"/><path class="cls-8" d="M170.76,182l.76.23,2.36.72v35.46c-7.09-2.8-12.85-2.3-16.08-1a6.15,6.15,0,0,0-1.49-1.05,3.19,3.19,0,0,0-.46-.2V188.74a1.32,1.32,0,0,0,1.12-.66c1.26-2.58,1.89-2.83,1.89-2.83l.14-.05a6.22,6.22,0,0,0,2.55-1.9,8.37,8.37,0,0,0,1.52.83.89.89,0,0,1,.23.11,11.12,11.12,0,0,1,1.57,2.76.9.9,0,0,0,.7.65.87.87,0,0,0,.78-.24,2,2,0,0,0,.27-.49,11.14,11.14,0,0,1,1.49-2.62A4.79,4.79,0,0,0,170.76,182Z"/><path class="cls-2" d="M147.81,175.92a3.22,3.22,0,0,1,3.24,1.83.86.86,0,0,0,.85.56.88.88,0,0,0,.78-.64,4,4,0,0,1,4-2.93,3.85,3.85,0,0,1,3.82,2.39.84.84,0,0,0,.78.55.88.88,0,0,0,.8-.52,3.73,3.73,0,0,1,3.65-2,4,4,0,0,1,4,3.92,4.86,4.86,0,0,1,0,.56.71.71,0,0,1,0,.21,1.26,1.26,0,0,1,0,.28,3.2,3.2,0,0,1-.17.55,3,3,0,0,1-.16.37.54.54,0,0,1-.07.13,2.46,2.46,0,0,1-.22.36l-.14.21-.14.16a2.41,2.41,0,0,1-.24.21.38.38,0,0,1-.09.09,2.16,2.16,0,0,1-.35.24s-.08,0-.1.07-.28.13-.43.16c-.47.16-.92.59-1.78,2.16-.79-1.52-1.22-2-1.63-2.17l-.31-.13c-.89-.39-1.31-.59-1.61-1.17a.88.88,0,0,0-.84-.45.84.84,0,0,0-.75.57c-.35,1.07-1.1,1.57-2.29,2.12a4.88,4.88,0,0,0-2,2.19c-.77-1.83-1.19-2.05-1.42-2.16a3.57,3.57,0,0,1-2.13-2.43.81.81,0,0,0-.78-.63.86.86,0,0,0-.85.54c-.25.62-.69.85-1.61,1.27l-.14.08c-.3.14-.66.41-1.6,2-.55-1.38-.93-1.78-1.32-2l-.41-.23-.12-.09-.26-.18-.13-.13c-.06-.06-.14-.12-.2-.19a1,1,0,0,1-.12-.16c-.06-.06-.1-.13-.16-.2l-.12-.17c0-.07-.07-.15-.12-.23a.7.7,0,0,0-.09-.17c0-.08-.06-.16-.09-.26s-.05-.11-.07-.17-.07-.28-.09-.43a2.85,2.85,0,0,1,0-.51A3.44,3.44,0,0,1,147.81,175.92Z"/><path class="cls-8" d="M141.82,181.7l1.23-.36a5.22,5.22,0,0,0,2.5,2.66,14.27,14.27,0,0,1,1.17,2.76c0,.05,0,.09.05.13s0,.09,0,.11a.31.31,0,0,0,.1.1.53.53,0,0,0,.23.17s0,0,0,0l.16,0,.07,0h.23l.14,0s.07,0,.1-.05a.39.39,0,0,0,.14-.08.25.25,0,0,0,.08-.07s.07-.08.1-.13a.19.19,0,0,0,.07-.06s0,0,0,0a18.66,18.66,0,0,1,1.76-2.91.35.35,0,0,1,.1,0,6.83,6.83,0,0,0,1.46-.84,5.42,5.42,0,0,0,2.3,2,4.19,4.19,0,0,1,.43.72v29.94A5.88,5.88,0,0,0,152,216a4.51,4.51,0,0,0-5.06.59c-.08.07-.15.16-.23.24a41.41,41.41,0,0,0-11,1.33V183.84h-.06C138.27,182.8,140.51,182.09,141.82,181.7Z"/><path class="cls-8" d="M130.4,222.88v-35c.36-.3,1.06-.84,2.4-1.88l1.09-.81v34.27a.91.91,0,0,0,.37.73.87.87,0,0,0,.81.11,37.35,37.35,0,0,1,10.62-1.65,9.84,9.84,0,0,0-.54,3.57,7.67,7.67,0,0,1,2.94-.55,4.71,4.71,0,0,0,.22,1.28H145.1a.32.32,0,0,0-.17,0Z"/><path class="cls-2" d="M147.38,241.91c-1.79-2.32-1.07-4.3.73-5.22a3.09,3.09,0,0,1,.34-1.56,4.26,4.26,0,0,1,4.56-2,1.46,1.46,0,1,0-.94-2.24,3.8,3.8,0,0,1-5.13,1.4,4.07,4.07,0,0,1-2.15-2.47c-1.41-.36-3.09.49-3.27,1.33a3.73,3.73,0,0,1,.32-2.64c.44-1,1.81-1.35,3.09-1.3,0,0,0,0,0-.07a3.94,3.94,0,0,1,5.27-1.65c2,1,1.62,2,2.18,2.34a1.36,1.36,0,0,0,1.39.17,1.42,1.42,0,0,0,.87-1.76,1.34,1.34,0,0,0-1.28-1,1.85,1.85,0,0,1-1.28-.29,2.88,2.88,0,0,1-.38-.22,4.63,4.63,0,0,1-.42-.32c-.13-.11-.24-.22-.36-.34s-.29-.34-.42-.52v0a5,5,0,0,1-.32-.6,3.9,3.9,0,0,1-.06-2.93c-.83-.44-2.59-.46-3.12.17a5.72,5.72,0,0,1,.65-1.51,4.13,4.13,0,0,1,.54-.71c.92-.92,2.47-.65,3.7.08a4.9,4.9,0,0,1,.78-.32,4.64,4.64,0,0,1,1.67-.09,4.4,4.4,0,0,1,1.13.37,1.56,1.56,0,0,1,.34.18c.07,0,.12.1.18.13a4.07,4.07,0,0,1,1.21,1.31,3.86,3.86,0,0,1,.19,3.32v0a1.19,1.19,0,0,0-.07.23.07.07,0,0,0,0,.06c0,.07,0,.14,0,.21v0a2.43,2.43,0,0,0,0,.38s0,0,.05.09,0,.07,0,.11a1.45,1.45,0,0,0,.13.29s0,0,0,.05l.2.32c.64.89,2.06,1.87,4.68,2.69a26.31,26.31,0,0,0,5.47.88,48.22,48.22,0,0,0,12.66-.73,10.2,10.2,0,0,0,1.37,4.6s3.42-6.75,8.26-6.65a17.69,17.69,0,0,0,6.23-.92l-.08.06c-3.11,1.46-7.59,5.46-7.81,11.54-.21,5.4,2.66,6.88,3.51,7.2a17.23,17.23,0,0,0,2.57,2.71,5.89,5.89,0,0,1-7.22-2.94c-1.68-2.94-3.89-3-3.89-3a4.35,4.35,0,0,0,2.14,4.38,5.11,5.11,0,0,1-5.94-2.25c-2.14-3.45-1.88-3.83-3.94-4.32-2.9-.63-5.4-1.31-7.22-1.85s-2.79-.85-3.05-.91l0,0c-3.33-1.14-6.63-1.36-8.3-.83-.78.23-1.25.86-1.2,1.25a4.88,4.88,0,0,1-.37,2.74,3.9,3.9,0,0,1-5.18,1.68,4.14,4.14,0,0,1-1.22-.88A2.5,2.5,0,0,0,147.38,241.91Z"/><path class="cls-1" d="M200.56,263c-.22,8.77-10,8.22-10,8.22,10,1.75,11.26-6.6,11.26-6.6a41.34,41.34,0,0,0,13.75-4.21C210.41,262.9,200.56,263,200.56,263Z"/><path class="cls-6" d="M99.7,219.33c1.25-.93,7.2-5.24,7.2-5.24s6,4.33,7.26,5.25l-2.77-8.54s6-4.33,7.22-5.23h-8.89s-2.31-7.09-2.79-8.6c-.47,1.51-2.79,8.6-2.79,8.6h-9l7.32,5.29S100.17,217.85,99.7,219.33Z"/><path class="cls-1" d="M237.71,261.84s11.42,9.34-6.12,22.53c0,0,10.94-5.2,11.58-13.81C243.63,264.27,237.71,261.84,237.71,261.84Z"/><path class="cls-1" d="M164.76,194c-3.74,0-6.79,3.32-6.79,7.43a7.48,7.48,0,0,0,.77,3.24h-.39a1,1,0,1,0,0,2h2a1,1,0,0,0,.87-.49,1,1,0,0,0,0-1A6.79,6.79,0,0,1,160,201.4c0-3,2.16-5.46,4.81-5.46s4.79,2.45,4.79,5.46a6.83,6.83,0,0,1-1.32,3.75,1,1,0,0,0,0,1,1,1,0,0,0,.89.52h2.17a1,1,0,1,0,0-2h-.5a8.28,8.28,0,0,0,.8-3.3C171.54,197.29,168.51,194,164.76,194Z"/><path class="cls-1" d="M216.85,182.56s4.53-3.13.68-9.06C217.53,173.5,218.58,179,216.85,182.56Z"/><path class="cls-1" d="M213.2,167.18c3.12,0,6.7.34,6.7.34s-3.43-3.16-5.28-3.14S213.2,167.18,213.2,167.18Z"/><path class="cls-6" d="M296.63,219.33c1.26-.93,7.19-5.24,7.19-5.24s6,4.32,7.27,5.25c-.47-1.47-2.75-8.54-2.75-8.54l7.2-5.23h-8.91l-2.78-8.6c-.47,1.51-2.77,8.6-2.77,8.6h-9l7.33,5.3Z"/><path class="cls-1" d="M142.18,206.27a.44.44,0,0,1-.27-.07.23.23,0,0,1-.07-.18s0-.07,0-.14.06-.18.1-.35.11-.37.18-.63l.32-1h4.87a3.69,3.69,0,0,0,.13.44c0,.23.13.47.2.72a4,4,0,0,1,.21.64,2,2,0,0,0,.12.3c0,.2-.13.28-.37.31v.27h3.64v-.27a.31.31,0,0,1-.27-.15,1.65,1.65,0,0,1-.27-.58c-.22-.57-.43-1.25-.68-2s-.52-1.52-.79-2.3-.53-1.57-.78-2.33-.46-1.46-.67-2-.34-1.1-.45-1.46-.21-.61-.21-.65a.23.23,0,0,1,.12-.22.57.57,0,0,1,.24-.06v-.28h-5v.28a1.6,1.6,0,0,1,.24.06.15.15,0,0,1,.12.17,2.4,2.4,0,0,1-.12.49c-.12.31-.24.73-.39,1.22s-.33,1.08-.52,1.72-.39,1.29-.61,1.95-.42,1.33-.61,2-.39,1.23-.57,1.76-.29.94-.41,1.3a4.18,4.18,0,0,1-.19.64,1.44,1.44,0,0,1-.18.39.8.8,0,0,1-.32.15v.27h3.25Z"/><polygon class="cls-8" points="144.82 196.09 146.84 201.98 142.96 201.98 144.82 196.09"/><path class="cls-6" d="M198.17,136.17c1.26-.93,7.19-5.24,7.19-5.24s6,4.35,7.3,5.25c-.48-1.48-2.79-8.53-2.79-8.53s5.95-4.34,7.22-5.24H208.2s-2.31-7.1-2.79-8.59c-.46,1.49-2.78,8.59-2.78,8.59h-9l7.32,5.31Z"/></svg>